inDegrees=yes
name=ik_Xsens_5
DataType=double
version=3
OpenSimVersion=4.4-2022-07-23-0e9fedc
endheader
time	pelvis_tilt	pelvis_list	pelvis_rotation	pelvis_tx	pelvis_ty	pelvis_tz	hip_flexion_r	hip_adduction_r	hip_rotation_r	knee_angle_r	knee_angle_r_beta	ankle_angle_r	subtalar_angle_r	mtp_angle_r	hip_flexion_l	hip_adduction_l	hip_rotation_l	knee_angle_l	knee_angle_l_beta	ankle_angle_l	subtalar_angle_l	mtp_angle_l	lumbar_extension	lumbar_bending	lumbar_rotation	arm_flex_r	arm_add_r	arm_rot_r	elbow_flex_r	pro_sup_r	wrist_flex_r	wrist_dev_r	arm_flex_l	arm_add_l	arm_rot_l	elbow_flex_l	pro_sup_l	wrist_flex_l	wrist_dev_l
46.38333333333333	0	0	0	0	0.93	0	0	0	0	5.983500811079903e-39	-3.017525459673154e-41	0	0	0	0	0	0	5.983500811079903e-39	-3.017525459673154e-41	0	0	0	0	0	0	23.93583955622329	-43.59397210489269	7.732632652404394	-8.578349870331802	-16.17917718271011	0	0	0.0002959701654861915	1.160918669953637e-05	-1.487501247636571e-08	3.499183559956391e-11	8.924631604305628e-11	0	0
46.4	0	0	0	0	0.93	0	-1.190889699457406e-38	0	0	0	-3.017525459673154e-41	0	0	0	-1.190889699457406e-38	0	0	0	-3.017525459673154e-41	0	0	0	0	0	0	23.67100052096077	-42.89645435039834	7.336742239956063	-9.034797127101392	-16.38712446927277	0	1.736187871591973e-38	0.0002959701654861915	1.160918669953637e-05	-1.487501247636571e-08	3.499183559956391e-11	8.924631604305628e-11	0	1.736187871591973e-38
46.41666666666666	0	0	0	0	0.93	0	1.342302146939031e-37	0	0	0	-3.017525459673154e-41	0	0	0	1.342302146939031e-37	0	0	0	-3.017525459673154e-41	0	0	0	0	0	0	23.42091220270907	-42.23239700282404	6.953392305918389	-9.466722305697649	-16.58534399596279	0	1.718827711703491e-42	0.0002959701654861915	1.160918669953637e-05	-1.487501247636571e-08	3.499183559956391e-11	8.924631604305628e-11	0	1.718827711703491e-42
46.43333333333333	0	0	0	0	0.93	0	0	0	0	0	0	0	0	0	0	0	0	0	0	0	0	0	0	0	0	23.16720323295783	-41.60896782527629	6.614627646968315	-9.871670464096812	-16.74464460500279	0	0	0.0002959701654861915	1.160918669953637e-05	-1.487501247636571e-08	3.499183559956391e-11	8.924631604305628e-11	0	0
46.45	1.387427821957905e-34	1.724182147675843e-34	1.69282190109336e-34	0	0.93	0	-5.80622096215548e-38	0	0	0	-2.600833213530897e-41	0	0	0	-5.80622096215548e-38	0	0	0	-2.600833213530897e-41	0	0	0	1.387427821957905e-34	1.724182147675843e-34	1.69282190109336e-34	22.92711754009788	-41.03327277738787	6.296803589906236	-10.25287304698468	-16.89134413576524	0	0	0.0002959701654861915	1.160918669953637e-05	-1.487501247636571e-08	3.499183559956391e-11	8.924631604305628e-11	0	0
46.46666666666667	0	0	4.716236455408689e-35	0	0.93	0	6.685364961755977e-38	0	0	0	-2.600833213530897e-41	0	0	0	6.685364961755977e-38	0	0	0	-2.600833213530897e-41	0	0	0	0	0	4.716236455408689e-35	22.72375283802253	-40.51294171437912	5.987714954555443	-10.59596067716243	-17.04180279380206	0	-1.550243391501305e-37	0.0002959701654861915	1.160918669953637e-05	-1.487501247636571e-08	3.499183559956391e-11	8.924631604305628e-11	0	-1.550243391501305e-37
46.48333333333333	1.448043600587379e-35	0	0	0	0.93	0	2.536791181569822e-36	0	0	0	8.211235002046651e-41	0	0	0	2.536791181569822e-36	0	0	0	8.211235002046651e-41	0	0	0	1.448043600587379e-35	0	0	22.56546047062956	-40.03129988553699	5.641788898113607	-10.92463890086059	-17.23593178578639	0	-1.534742492328786e-41	0.0002959701654861915	1.160918669953637e-05	-1.487501247636571e-08	3.499183559956391e-11	8.924631604305628e-11	0	-1.534742492328786e-41
46.5	0	0	3.103527865816518e-33	0	0.93	0	2.859940213376166e-38	-1.077613842297402e-35	0	5.378389137743791e-39	-1.300731762074368e-41	0	0	0	2.859940213376166e-38	-1.077613842297402e-35	0	5.378389137743791e-39	-1.300731762074368e-41	0	0	0	0	0	3.103527865816518e-33	22.42931172620359	-39.59304430828443	5.301150587388455	-11.23327637620715	-17.4343192361168	0	-1.519396586802109e-45	0.0002959701654861915	1.160918669953637e-05	-1.487501247636571e-08	3.499183559956391e-11	8.924631604305628e-11	0	-1.519396586802109e-45
46.51666666666667	0	5.684413018118795e-34	3.738724060541744e-53	0	0.93	0	3.27910324628349e-38	-4.381317258447356e-55	0	0	-4.297037353413272e-43	0	0	0	3.27910324628349e-38	-4.381317258447356e-55	0	0	-4.297037353413272e-43	0	0	0	0	5.684413018118795e-34	3.738724060541744e-53	22.27464418743315	-39.1656684990704	5.012652318338357	-11.52301635401473	-17.58323572847521	0	-1.504204125138235e-49	0.0002959701654861915	1.160918669953637e-05	-1.487501247636571e-08	3.499183559956391e-11	8.924631604305628e-11	0	-1.504204125138235e-49
